<svg xmlns="http://www.w3.org/2000/svg" width="24" height="24" viewBox="0 0 24 24" fill="none" stroke="currentColor" stroke-width="2" stroke-linecap="round" stroke-linejoin="round">
  <path d="M12 2v2"/>
  <path d="M12 8v2"/>
  <path d="M12 14v2"/>
  <path d="M4.93 13.5 8 12l4-2 2.5 4-4.5 2.5"/>
  <path d="M19.07 13.5 16 12l-4-2 2.5 4 4.5 2.5"/>
  <path d="M12 22c-4.97 0-9-2.582-9-7v-2c0-1.994 1.016-3.814 2.64-5.098"/>
  <path d="M12 22c4.97 0 9-2.582 9-7v-2c0-1.994-1.016-3.814-2.64-5.098"/>
</svg>
